HIERARCHY
ROOT HipCenter
{
    OFFSET 0.0 0.0 -0.0
    CHANNELS 6 Xposition Yposition Zposition Zrotation Xrotation Yrotation
    JOINT Spine
    {
        OFFSET 0.0 10.527351379394531 0.0
        CHANNELS 3 Zrotation Xrotation Yrotation
        JOINT ShoulderCenter
        {
            OFFSET 0.0 31.097728729248047 0.0
            CHANNELS 3 Zrotation Xrotation Yrotation
            JOINT LeftShoulder
            {
                OFFSET 19.334375381469727 0.0 0.0
                CHANNELS 3 Zrotation Xrotation Yrotation
                JOINT LeftElbow
                {
                    OFFSET 26.163959503173828 0.0 0.0
                    CHANNELS 3 Zrotation Xrotation Yrotation
                    JOINT LeftWrist
                    {
                        OFFSET 30.865591049194336 0.0 0.0
                        CHANNELS 3 Zrotation Xrotation Yrotation
                        JOINT LeftHand
                        {
                            OFFSET 3.130814552307129 0.0 0.0
                            CHANNELS 3 Zrotation Xrotation Yrotation
                            End Site
                            {
                                OFFSET 1.2523257732391357 0.0 0.0
                            }
                        }
                    }
                }
            }
            JOINT RightShoulder
            {
                OFFSET -19.334375381469727 0.0 0.0
                CHANNELS 3 Zrotation Xrotation Yrotation
                JOINT RightElbow
                {
                    OFFSET -26.163959503173828 0.0 0.0
                    CHANNELS 3 Zrotation Xrotation Yrotation
                    JOINT RightWrist
                    {
                        OFFSET -30.865591049194336 0.0 0.0
                        CHANNELS 3 Zrotation Xrotation Yrotation
                        JOINT RightHand
                        {
                            OFFSET -3.130814552307129 0.0 0.0
                            CHANNELS 3 Zrotation Xrotation Yrotation
                            End Site
                            {
                                OFFSET -1.2523257732391357 0.0 0.0
                            }
                        }
                    }
                }
            }
            End Site
            {
                OFFSET 0.0 12.439092636108398 0.0
            }
        }
    }
    JOINT LeftHip
    {
        OFFSET 14.168973922729492 0.0 0.0
        CHANNELS 3 Zrotation Xrotation Yrotation
        JOINT LeftKnee
        {
            OFFSET 0.0 -41.67148208618164 0.0
            CHANNELS 3 Zrotation Xrotation Yrotation
            JOINT LeftAnkle
            {
                OFFSET 0.0 -43.67265701293945 0.0
                CHANNELS 3 Zrotation Xrotation Yrotation
                JOINT LeftFoot
                {
                    OFFSET 0.0 -11.316573143005371 0.0
                    CHANNELS 3 Zrotation Xrotation Yrotation
                    End Site
                    {
                        OFFSET 0.0 0.0 4.526628494262695
                    }
                }
            }
        }
    }
    JOINT RightHip
    {
        OFFSET -14.168973922729492 0.0 0.0
        CHANNELS 3 Zrotation Xrotation Yrotation
        JOINT RightKnee
        {
            OFFSET 0.0 -41.67148208618164 0.0
            CHANNELS 3 Zrotation Xrotation Yrotation
            JOINT RightAnkle
            {
                OFFSET 0.0 -43.67265701293945 0.0
                CHANNELS 3 Zrotation Xrotation Yrotation
                JOINT RightFoot
                {
                    OFFSET 0.0 -11.316573143005371 0.0
                    CHANNELS 3 Zrotation Xrotation Yrotation
                    End Site
                    {
                        OFFSET 0.0 0.0 4.526628494262695
                    }
                }
            }
        }
    }
}
MOTION
Frames: 5
Frame Time: 0.03333333333333333
-3.700000047683716 5.799999713897705 31.5 -3.8879093621841907 9.350887469136826 7.011288812614947 -7.0935794047539815 -2.719782664870703 -0.24740469638938012 -1.2924828391735158e-06 5.497436629294048e-07 10.933594323091333 97.95209031853555 -17.59963281343382 177.3437418182243 -6.30876889102228e-07 1.7715487173219847e-06 70.31145033571173 -4.238533444266806e-06 6.366048548134045 30.565449193568597 0.0 0.0 -6.3611093629270335e-15 -113.21945261043642 23.32980311127004 131.007833711759 -1.957467459619207e-06 1.9064233167800533e-06 -74.91683855438322 -179.99999820018851 -50.68161285957978 133.01858240504274 -2.385416011097638e-15 -3.1805546814635168e-15 -6.5598940305185035e-15 7.971756347845511 -17.677339393403642 -13.691137440480682 -3.4043902518630995 24.981294476366635 -31.582578935261605 86.7249813385126 -40.59149336760782 147.01210803444513 3.1805546814635168e-15 0.0 0.0 -21.845969488784668 -7.283117637089088 39.12049962000548 -0.023469823932054268 0.0947612086096786 0.1987335360377862 -63.62727681914395 -45.23141168414581 -137.87656987665153 8.827812596100317e-32 6.3611093629270335e-15 -1.5902773407317584e-15
-3.700000047683716 5.799999713897705 31.400001525878906 -3.887909418297801 9.350887691008879 7.06672336942099 -6.478077438304117 -2.2344406664444523 -0.19174228829939302 -1.0543049718436918e-06 -7.291871962102253e-08 11.3553556298216 97.81937438612823 -18.208248085422714 177.45537833076804 -5.576612965878713e-06 -1.4478718660078193e-06 70.51314320539001 -6.84924839768032e-07 5.898831473305412 30.82396647776285 -3.1805546814635168e-15 -1.7655625192200634e-31 6.3611093629270335e-15 -113.7233538205358 20.713217280647235 135.3768200057537 -3.1704151094982703e-06 2.2537369163631342e-06 -75.22126786941588 -179.99999813699128 -51.66511740085143 131.92574019081115 1.5902773407317582e-15 3.1805546814635164e-15 -2.1866313435061676e-15 8.097561896575723 -17.85274784649278 -13.487174874354217 -3.6224767882382345 25.10957188383216 -31.661187742084163 86.07756555897562 -40.74071147210792 146.24310470649135 -3.1805546814635168e-15 6.3611093629270335e-15 -3.1805546814635168e-15 -21.705748439408705 -7.150782760978663 39.36134399411402 0.0060668563943875155 0.055568608129101554 0.11680897554545694 -64.51378099830197 -44.98563653961389 -138.95228914315965 -1.7655625192200634e-31 6.361109362927033e-15 3.1805546814635164e-15
-3.700000047683716 5.799999713897705 31.200000762939453 -3.8879094888725976 9.890384389196232 7.073727166673708 -5.747210740592261 -2.308703304925066 -0.1800088324521218 -1.4414904382584384e-07 9.78650730598628e-07 11.607051114742138 97.49480051538313 -18.61405970890756 177.3123353948211 -6.45417213740277e-07 5.1434737655098765e-08 70.7199592000885 9.863972929545044e-08 5.412316774746096 31.24490686138328 6.361109362927035e-15 0.0 0.0 -114.51435825118044 18.10593079631014 139.05722655420385 1.4265734657030408e-06 1.7230804359463926e-06 -75.19153080884996 179.99999560693016 -49.526497046864066 132.72416395832835 2.136935176608301e-15 -3.16813063973905e-15 8.01971893314336e-15 8.026052918853155 -18.50107058038683 -13.200899516612772 -3.646769897431853 25.103924450103545 -31.101228035379425 85.90036184438982 -41.47157270908735 145.2704220616445 -3.1805546814635168e-15 -6.361109362927033e-15 -3.1805546814635168e-15 -21.651169207365147 -7.534002365248232 39.16174964819128 0.012428577738010232 -0.1593759307459143 -0.33216818170519113 -63.453692461069494 -45.36684220479482 -137.48806535748966 0.0 0.0 -4.770832022195277e-15
-3.700000047683716 5.799999713897705 31.200000762939453 -3.301866004079269 9.803311372497124 6.977805125511757 -5.896282670369422 -1.6235542416637057 -0.11482941047540268 7.572337139996443e-07 -5.913057681966007e-07 12.010557567541095 97.59849967811593 -18.94930134967246 177.55358193955172 -2.6496777659514373e-06 -2.470390982881112e-06 70.72333251648367 3.6355481190764277e-06 8.662632830041982 30.25583378262287 -9.54166404439055e-15 0.0 0.0 -114.3499735906847 16.085694086239442 141.91017483029506 -7.312330783745173e-06 -3.0227450408703405e-06 -74.46487964913987 179.99999954652517 -52.770548438120116 133.84084695390388 9.939233379573489e-17 4.969616689786744e-17 -7.007159532599309e-15 7.4410679096805366 -18.482529278868167 -12.253204252118218 -3.0631265130131426 25.310923629610528 -31.881392286142816 85.87705797313534 -42.36496723205366 145.12573768588052 -3.1805546814635164e-15 7.95138670365879e-15 -1.590277340731758e-15 -22.206438688763814 -7.3867140935500455 38.596011961927225 0.11214119096743981 -0.0731191952780096 -0.1535834390773915 -63.64689348694791 -45.789909872496835 -137.66004097481743 3.180554681463516e-15 -7.156248033292912e-15 -3.180554681463516e-15
-3.700000047683716 5.799999713897705 31.099998474121094 -3.3018661298942322 9.803331728399518 7.29654333715579 -5.463203684563028 -1.0906352416629417 -0.06782973835261612 3.867392095014944e-07 2.109269251365372e-06 12.215465829140285 97.66141396161585 -19.6023653607258 177.72872883006718 -1.0682222315507496e-06 5.692219619810343e-07 70.76804006180893 -3.1658560471770086e-07 5.119765130467549 30.557434158525087 0.0 0.0 0.0 -115.93340264657665 13.884532911445707 143.94086018687432 3.768921879221597e-06 1.5553552737681393e-06 -73.13165028394707 179.99999983274517 -50.181953735955226 133.33297623532667 3.975693351829396e-16 2.2414367919785962e-32 6.4605016967227685e-15 7.320336347838201 -18.659863270139656 -12.368487504749528 -2.9765760213437646 25.458640048159214 -32.11972150182412 85.87705797313534 -42.36496723205366 145.12573768588052 -3.1805546814635164e-15 7.95138670365879e-15 -1.590277340731758e-15 -22.24437568642576 -7.2661685851488 38.919396352847485 -0.10083242660379152 -0.02926858569488549 -0.0613090608348217 -62.945840781770755 -45.22860091079757 -137.14998804052942 -3.1805546814635176e-15 5.565970692561156e-15 1.5902773407317588e-15
